<?xml version="1.0" encoding="UTF-8"?>
<svg xmlns="http://www.w3.org/2000/svg" xmlns:xlink="http://www.w3.org/1999/xlink" width="298pt" height="203pt" viewBox="0 0 298 203" version="1.1">
<g id="surface1">
<path style=" stroke:none;fill-rule:nonzero;fill:rgb(94.117647%,94.117647%,94.117647%);fill-opacity:1;" d="M 109.410156 195.25 C 97.5 189.722656 87.722656 178.070312 87.445312 164.867188 C 98.730469 173.648438 112.730469 178.128906 126.984375 177.519531 C 132.476562 177.257812 138.558594 176.398438 142.972656 179.707031 C 145.714844 181.765625 147.253906 185.140625 147.800781 188.546875 C 148.351562 191.941406 148.027344 195.417969 147.699219 198.851562 L 148.027344 199.644531 C 134.988281 201.085938 121.332031 200.765625 109.410156 195.25 Z M 109.410156 195.25 "/>
<path style=" stroke:none;fill-rule:nonzero;fill:rgb(100%,100%,100%);fill-opacity:1;" d="M 87.714844 164.820312 C 93.246094 174.238281 101.574219 181.644531 111.527344 186.011719 C 113.65625 186.992188 115.921875 187.628906 118.242188 187.898438 C 120.511719 188.078125 122.785156 187.648438 124.839844 186.65625 C 126.769531 185.757812 128.644531 184.617188 130.75 184.214844 C 132.953125 183.832031 135.199219 184.402344 136.945312 185.796875 C 139.148438 187.449219 140.621094 189.808594 141.980469 192.15625 C 143.492188 194.761719 145.023438 197.503906 147.578125 199.222656 C 147.878906 199.429688 147.542969 199.90625 147.234375 199.691406 C 142.792969 196.699219 141.523438 191.023438 137.839844 187.339844 C 136.113281 185.617188 133.867188 184.402344 131.386719 184.703125 C 129.203125 184.972656 127.28125 186.140625 125.332031 187.066406 C 123.347656 188.066406 121.144531 188.574219 118.925781 188.515625 C 116.59375 188.367188 114.308594 187.824219 112.164062 186.910156 C 107.300781 184.917969 102.777344 182.160156 98.757812 178.746094 C 94.152344 174.882812 90.242188 170.253906 87.183594 165.066406 C 86.996094 164.738281 87.527344 164.503906 87.714844 164.820312 Z M 87.714844 164.820312 "/>
<path style=" stroke:none;fill-rule:nonzero;fill:rgb(100%,100%,100%);fill-opacity:1;" d="M 108.246094 184.796875 C 106.277344 188.066406 102.246094 189.414062 98.722656 187.984375 C 98.375 187.84375 98.582031 187.292969 98.925781 187.433594 C 102.199219 188.777344 105.960938 187.507812 107.769531 184.457031 C 107.964844 184.132812 108.429688 184.476562 108.246094 184.796875 Z M 108.246094 184.796875 "/>
<path style=" stroke:none;fill-rule:nonzero;fill:rgb(100%,100%,100%);fill-opacity:1;" d="M 123.925781 187.234375 C 123.066406 183.550781 120.863281 180.335938 117.75 178.210938 C 117.433594 178.007812 117.777344 177.53125 118.085938 177.734375 C 121.320312 179.953125 123.605469 183.308594 124.492188 187.140625 C 124.578125 187.507812 124.007812 187.601562 123.925781 187.234375 Z M 123.925781 187.234375 "/>
<path style=" stroke:none;fill-rule:nonzero;fill:rgb(100%,100%,100%);fill-opacity:1;" d="M 94.839844 174.539062 C 95.847656 173.453125 96.242188 171.929688 95.894531 170.488281 C 95.8125 170.125 96.378906 170.03125 96.464844 170.394531 C 96.847656 171.992188 96.410156 173.667969 95.308594 174.882812 C 95.214844 175.003906 95.039062 175.03125 94.90625 174.949219 C 94.777344 174.847656 94.746094 174.667969 94.839844 174.539062 Z M 94.839844 174.539062 "/>
<path style=" stroke:none;fill-rule:nonzero;fill:rgb(94.117647%,94.117647%,94.117647%);fill-opacity:1;" d="M 121.050781 135.644531 C 121.117188 135.878906 121.183594 136.105469 121.246094 136.328125 C 122.097656 139.367188 123.179688 142.324219 124.503906 145.175781 C 124.597656 145.398438 124.707031 145.625 124.808594 145.839844 C 128.066406 152.683594 132.5625 158.863281 138.066406 164.054688 C 140.246094 166.121094 142.589844 168.011719 145.058594 169.722656 C 148.484375 172.078125 152.371094 174.359375 154.75 177.613281 C 155.003906 177.949219 155.226562 178.304688 155.441406 178.671875 L 148.96875 199.1875 C 148.929688 199.234375 148.894531 199.269531 148.855469 199.308594 L 148.632812 200.140625 C 148.5 200.066406 148.363281 199.980469 148.230469 199.898438 C 148.15625 199.859375 148.074219 199.804688 148 199.757812 C 147.941406 199.730469 147.894531 199.691406 147.847656 199.664062 C 147.832031 199.664062 147.8125 199.644531 147.800781 199.636719 C 147.746094 199.617188 147.710938 199.589844 147.671875 199.5625 C 146.898438 199.082031 146.132812 198.605469 145.378906 198.121094 C 145.367188 198.121094 145.367188 198.121094 145.359375 198.121094 C 139.558594 194.410156 134.007812 190.179688 129.269531 185.234375 C 129.128906 185.085938 128.980469 184.9375 128.839844 184.777344 C 126.722656 182.542969 124.78125 180.128906 123.046875 177.566406 C 122.105469 176.164062 121.230469 174.714844 120.4375 173.226562 C 118.382812 169.367188 116.9375 165.203125 116.164062 160.882812 C 114.632812 152.292969 115.835938 143.304688 120.679688 136.1875 C 120.808594 136.011719 120.921875 135.832031 121.050781 135.644531 Z M 121.050781 135.644531 "/>
<path style=" stroke:none;fill-rule:nonzero;fill:rgb(100%,100%,100%);fill-opacity:1;" d="M 121.292969 135.777344 C 120.089844 146.644531 122.308594 157.613281 127.644531 167.132812 C 128.753906 169.207031 130.191406 171.085938 131.878906 172.703125 C 133.578125 174.230469 135.65625 175.265625 137.898438 175.714844 C 139.96875 176.171875 142.140625 176.398438 144.070312 177.351562 C 146.046875 178.378906 147.511719 180.203125 148.074219 182.363281 C 148.828125 185.027344 148.605469 187.796875 148.289062 190.5 C 147.933594 193.5 147.511719 196.605469 148.53125 199.53125 C 148.652344 199.886719 148.101562 200.054688 147.96875 199.699219 C 146.214844 194.625 148.59375 189.320312 147.859375 184.140625 C 147.511719 181.71875 146.441406 179.390625 144.277344 178.128906 C 142.382812 177.023438 140.136719 176.78125 138.035156 176.34375 C 135.855469 175.941406 133.792969 175.003906 132.046875 173.621094 C 130.277344 172.085938 128.785156 170.265625 127.617188 168.234375 C 124.921875 163.691406 122.964844 158.753906 121.796875 153.589844 C 120.425781 147.71875 120.070312 141.648438 120.734375 135.644531 C 120.773438 135.273438 121.339844 135.414062 121.292969 135.777344 Z M 121.292969 135.777344 "/>
<path style=" stroke:none;fill-rule:nonzero;fill:rgb(100%,100%,100%);fill-opacity:1;" d="M 125.753906 164.167969 C 122.226562 165.578125 118.195312 164.214844 116.238281 160.941406 C 116.050781 160.613281 116.535156 160.304688 116.734375 160.621094 C 118.542969 163.679688 122.300781 164.953125 125.574219 163.617188 C 125.921875 163.476562 126.089844 164.027344 125.753906 164.167969 Z M 125.753906 164.167969 "/>
<path style=" stroke:none;fill-rule:nonzero;fill:rgb(100%,100%,100%);fill-opacity:1;" d="M 136.816406 175.621094 C 138.324219 172.164062 138.492188 168.253906 137.273438 164.671875 C 137.152344 164.316406 137.699219 164.148438 137.820312 164.503906 C 139.089844 168.226562 138.902344 172.300781 137.316406 175.894531 C 137.167969 176.238281 136.65625 175.96875 136.816406 175.621094 Z M 136.816406 175.621094 "/>
<path style=" stroke:none;fill-rule:nonzero;fill:rgb(100%,100%,100%);fill-opacity:1;" d="M 121.183594 147.847656 C 122.636719 147.597656 123.867188 146.625 124.445312 145.257812 C 124.597656 144.914062 125.109375 145.195312 124.960938 145.53125 C 124.304688 147.035156 122.953125 148.109375 121.351562 148.410156 C 121.199219 148.449219 121.042969 148.363281 120.984375 148.214844 C 120.9375 148.066406 121.03125 147.894531 121.183594 147.847656 Z M 121.183594 147.847656 "/>
<path style=" stroke:none;fill-rule:nonzero;fill:rgb(94.117647%,94.117647%,94.117647%);fill-opacity:1;" d="M 275.960938 194.269531 C 274.738281 196.8125 273.125 199.160156 271.183594 201.195312 C 270.757812 201.65625 270.300781 202.09375 269.84375 202.523438 C 269.523438 202.824219 269.199219 203.113281 268.863281 203.402344 L 246.289062 203.402344 C 246.308594 203.113281 246.335938 202.816406 246.382812 202.523438 C 246.53125 201.582031 246.859375 200.671875 247.34375 199.859375 C 249.230469 196.820312 253.089844 195.886719 256.449219 194.734375 C 257.25 194.453125 258.050781 194.15625 258.828125 193.820312 C 259.835938 193.398438 260.832031 192.929688 261.792969 192.417969 C 266.101562 190.144531 269.964844 187.078125 273.164062 183.382812 C 273.265625 183.269531 273.367188 183.148438 273.460938 183.027344 C 274.777344 181.476562 275.960938 179.820312 277.015625 178.082031 C 277.097656 177.949219 277.171875 177.820312 277.25 177.6875 C 277.296875 177.828125 277.339844 177.960938 277.386719 178.089844 C 279.1875 183.375 278.394531 189.179688 275.960938 194.269531 Z M 275.960938 194.269531 "/>
<path style=" stroke:none;fill-rule:nonzero;fill:rgb(100%,100%,100%);fill-opacity:1;" d="M 277.445312 177.746094 C 277.425781 177.867188 277.417969 177.976562 277.386719 178.089844 C 276.960938 180.644531 276.242188 183.140625 275.242188 185.515625 C 274.785156 186.617188 274.28125 187.695312 273.703125 188.730469 C 272.613281 190.769531 271.308594 192.6875 269.824219 194.453125 C 269.738281 194.546875 269.65625 194.640625 269.570312 194.746094 C 268.9375 195.472656 268.265625 196.175781 267.566406 196.839844 C 266.492188 197.90625 265.253906 198.773438 263.890625 199.421875 C 262.773438 199.90625 261.578125 200.132812 260.375 200.101562 C 260.152344 200.101562 259.917969 200.09375 259.695312 200.074219 C 258.761719 200.019531 257.820312 199.898438 256.894531 199.917969 C 256.421875 199.925781 255.953125 199.980469 255.496094 200.101562 C 254.238281 200.476562 253.183594 201.355469 252.585938 202.523438 C 252.457031 202.757812 252.335938 202.992188 252.230469 203.226562 C 252.214844 203.28125 252.1875 203.347656 252.167969 203.402344 L 251.757812 203.402344 C 251.878906 203.105469 252.007812 202.816406 252.15625 202.523438 C 252.230469 202.375 252.316406 202.226562 252.398438 202.085938 C 253.128906 200.832031 254.347656 199.953125 255.757812 199.664062 C 256.175781 199.578125 256.605469 199.542969 257.046875 199.542969 C 257.988281 199.53125 258.949219 199.664062 259.890625 199.71875 C 259.992188 199.71875 260.085938 199.730469 260.1875 199.730469 C 260.308594 199.730469 260.441406 199.730469 260.5625 199.730469 C 261.800781 199.730469 263.035156 199.4375 264.144531 198.886719 C 265.476562 198.167969 266.691406 197.25 267.742188 196.15625 C 268.3125 195.585938 268.855469 194.996094 269.375 194.390625 C 269.402344 194.363281 269.433594 194.34375 269.449219 194.316406 C 271.679688 191.695312 273.5 188.742188 274.824219 185.5625 C 274.878906 185.449219 274.925781 185.328125 274.972656 185.214844 C 275.914062 182.925781 276.59375 180.523438 277.015625 178.082031 C 277.035156 177.960938 277.0625 177.839844 277.070312 177.726562 C 277.109375 177.492188 277.480469 177.511719 277.445312 177.746094 Z M 277.445312 177.746094 "/>
<path style=" stroke:none;fill-rule:nonzero;fill:rgb(100%,100%,100%);fill-opacity:1;" d="M 269.433594 194.632812 C 271.382812 196.128906 274.125 195.980469 275.90625 194.277344 C 276.082031 194.109375 275.832031 193.828125 275.652344 193.996094 C 274.003906 195.585938 271.445312 195.71875 269.636719 194.316406 C 269.441406 194.175781 269.246094 194.492188 269.433594 194.632812 Z M 269.433594 194.632812 "/>
<path style=" stroke:none;fill-rule:nonzero;fill:rgb(100%,100%,100%);fill-opacity:1;" d="M 260.582031 199.839844 C 260.226562 197.417969 260.792969 194.960938 262.164062 192.949219 C 262.304688 192.742188 261.988281 192.539062 261.859375 192.742188 C 260.429688 194.847656 259.84375 197.410156 260.214844 199.925781 C 260.246094 200.167969 260.609375 200.085938 260.582031 199.839844 Z M 260.582031 199.839844 "/>
<path style=" stroke:none;fill-rule:nonzero;fill:rgb(100%,100%,100%);fill-opacity:1;" d="M 275.074219 185.273438 C 274.21875 184.859375 273.621094 184.039062 273.488281 183.085938 C 273.453125 182.851562 273.089844 182.925781 273.125 183.167969 C 273.273438 184.214844 273.929688 185.121094 274.878906 185.582031 C 274.964844 185.636719 275.074219 185.617188 275.132812 185.523438 C 275.1875 185.441406 275.160156 185.328125 275.074219 185.273438 Z M 275.074219 185.273438 "/>
<path style=" stroke:none;fill-rule:nonzero;fill:rgb(94.117647%,94.117647%,94.117647%);fill-opacity:1;" d="M 259.378906 190.582031 C 259.246094 191.679688 259.058594 192.753906 258.828125 193.820312 L 258.828125 193.828125 C 258.386719 195.78125 257.792969 197.691406 257.046875 199.542969 C 256.988281 199.671875 256.941406 199.792969 256.894531 199.917969 C 256.523438 200.804688 256.132812 201.664062 255.71875 202.523438 C 255.570312 202.824219 255.421875 203.113281 255.273438 203.402344 L 240.574219 203.402344 L 239.863281 202.523438 L 239.613281 202.214844 C 239.648438 201.945312 239.707031 201.683594 239.78125 201.414062 C 240.441406 198.886719 242.242188 196.585938 243.746094 194.351562 C 244.828125 192.734375 245.796875 191.042969 246.617188 189.273438 C 248.707031 184.851562 249.957031 180.0625 250.3125 175.164062 C 250.320312 175.015625 250.320312 174.847656 250.328125 174.695312 C 250.449219 172.65625 250.414062 170.621094 250.207031 168.597656 L 250.207031 168.589844 C 250.199219 168.441406 250.179688 168.289062 250.160156 168.140625 C 250.28125 168.226562 250.394531 168.300781 250.507812 168.375 C 250.515625 168.375 250.515625 168.375 250.515625 168.375 C 255.085938 171.488281 257.929688 176.59375 259.03125 182.121094 C 259.042969 182.128906 259.042969 182.140625 259.042969 182.148438 C 259.589844 184.925781 259.703125 187.777344 259.378906 190.582031 Z M 259.378906 190.582031 "/>
<path style=" stroke:none;fill-rule:nonzero;fill:rgb(100%,100%,100%);fill-opacity:1;" d="M 254.257812 186.03125 C 254.246094 186.160156 254.246094 186.28125 254.226562 186.402344 C 254.152344 187.375 254.042969 188.339844 253.882812 189.300781 C 253.667969 190.796875 253.183594 192.257812 252.484375 193.59375 C 251.886719 194.652344 251.066406 195.558594 250.085938 196.257812 C 249.898438 196.410156 249.714844 196.539062 249.527344 196.660156 C 248.371094 197.429688 247.074219 198.109375 246.1875 199.222656 C 245.480469 200.167969 245.152344 201.347656 245.273438 202.523438 C 245.292969 202.824219 245.328125 203.113281 245.394531 203.402344 L 245.011719 203.402344 C 244.964844 203.171875 244.9375 202.925781 244.910156 202.683594 C 244.902344 202.628906 244.902344 202.582031 244.902344 202.523438 C 244.769531 201.140625 245.21875 199.757812 246.132812 198.710938 C 247.074219 197.671875 248.324219 197.015625 249.472656 196.25 C 249.546875 196.195312 249.628906 196.136719 249.714844 196.082031 C 249.808594 196.007812 249.917969 195.933594 250.011719 195.847656 C 251.011719 195.101562 251.820312 194.128906 252.371094 193.003906 C 253.007812 191.632812 253.425781 190.152344 253.601562 188.648438 C 253.722656 187.851562 253.808594 187.050781 253.863281 186.246094 C 253.863281 186.207031 253.863281 186.179688 253.863281 186.140625 L 253.863281 186.132812 C 254.078125 182.691406 253.769531 179.242188 252.941406 175.894531 C 252.902344 175.773438 252.875 175.648438 252.847656 175.527344 C 252.222656 173.125 251.335938 170.796875 250.207031 168.589844 C 250.152344 168.488281 250.105469 168.382812 250.050781 168.28125 C 249.9375 168.066406 250.246094 167.851562 250.347656 168.066406 C 250.402344 168.167969 250.460938 168.273438 250.507812 168.375 C 250.515625 168.375 250.515625 168.375 250.515625 168.375 C 251.699219 170.683594 252.625 173.132812 253.257812 175.660156 C 253.539062 176.789062 253.769531 177.941406 253.9375 179.109375 C 254.285156 181.402344 254.386719 183.71875 254.257812 186.03125 Z M 254.257812 186.03125 "/>
<path style=" stroke:none;fill-rule:nonzero;fill:rgb(100%,100%,100%);fill-opacity:1;" d="M 254.050781 186.414062 C 256.503906 186.414062 258.601562 184.636719 259.003906 182.207031 C 259.042969 181.960938 258.675781 181.886719 258.640625 182.128906 C 258.265625 184.402344 256.308594 186.058594 254.023438 186.039062 C 253.78125 186.03125 253.816406 186.414062 254.050781 186.414062 Z M 254.050781 186.414062 "/>
<path style=" stroke:none;fill-rule:nonzero;fill:rgb(100%,100%,100%);fill-opacity:1;" d="M 250.097656 195.933594 C 248.371094 194.222656 247.34375 191.910156 247.242188 189.460938 C 247.234375 189.21875 246.859375 189.246094 246.867188 189.488281 C 246.988281 192.03125 248.054688 194.4375 249.855469 196.222656 C 250.023438 196.390625 250.273438 196.109375 250.097656 195.933594 Z M 250.097656 195.933594 "/>
<path style=" stroke:none;fill-rule:nonzero;fill:rgb(100%,100%,100%);fill-opacity:1;" d="M 252.960938 175.511719 C 252.027344 175.707031 251.058594 175.40625 250.386719 174.722656 C 250.21875 174.554688 249.976562 174.847656 250.144531 175.015625 C 250.890625 175.761719 251.953125 176.089844 252.988281 175.882812 C 253.089844 175.875 253.164062 175.78125 253.164062 175.679688 C 253.144531 175.574219 253.0625 175.5 252.960938 175.511719 Z M 252.960938 175.511719 "/>
<path style=" stroke:none;fill-rule:nonzero;fill:rgb(94.117647%,94.117647%,94.117647%);fill-opacity:1;" d="M 1.53125 43.390625 C 1.882812 30.183594 8.675781 16.550781 20.621094 11.101562 C 17.042969 25.003906 18.457031 39.734375 24.625 52.683594 C 27.023438 57.667969 30.203125 62.960938 28.914062 68.347656 C 28.121094 71.695312 25.640625 74.445312 22.75 76.285156 C 19.867188 78.136719 16.566406 79.203125 13.300781 80.25 L 12.703125 80.867188 C 6.257812 69.355469 1.175781 56.59375 1.53125 43.390625 Z M 1.53125 43.390625 "/>
<path style=" stroke:none;fill-rule:nonzero;fill:rgb(100%,100%,100%);fill-opacity:1;" d="M 20.761719 11.332031 C 14.355469 20.152344 10.867188 30.785156 10.792969 41.714844 C 10.734375 44.070312 11.042969 46.417969 11.714844 48.671875 C 12.441406 50.839844 13.730469 52.785156 15.445312 54.292969 C 17.023438 55.730469 18.792969 57.011719 19.996094 58.808594 C 21.210938 60.6875 21.574219 62.996094 20.988281 65.15625 C 20.34375 67.851562 18.777344 70.132812 17.164062 72.320312 C 15.371094 74.753906 13.476562 77.238281 12.910156 80.277344 C 12.84375 80.652344 12.273438 80.523438 12.347656 80.15625 C 13.339844 74.863281 18.011719 71.453125 19.933594 66.589844 C 20.828125 64.316406 21.042969 61.761719 19.792969 59.574219 C 18.691406 57.675781 16.863281 56.347656 15.257812 54.910156 C 13.5625 53.460938 12.238281 51.617188 11.40625 49.550781 C 10.632812 47.335938 10.230469 45.007812 10.222656 42.648438 C 10.128906 37.367188 10.867188 32.09375 12.394531 27.035156 C 14.121094 21.253906 16.808594 15.804688 20.34375 10.941406 C 20.566406 10.632812 20.988281 11.035156 20.761719 11.332031 Z M 20.761719 11.332031 "/>
<path style=" stroke:none;fill-rule:nonzero;fill:rgb(100%,100%,100%);fill-opacity:1;" d="M 10.605469 38.191406 C 6.847656 37.65625 4.03125 34.449219 3.953125 30.632812 C 3.945312 30.261719 4.523438 30.230469 4.53125 30.605469 C 4.597656 34.160156 7.238281 37.140625 10.734375 37.628906 C 11.109375 37.675781 10.976562 38.246094 10.605469 38.191406 Z M 10.605469 38.191406 "/>
<path style=" stroke:none;fill-rule:nonzero;fill:rgb(100%,100%,100%);fill-opacity:1;" d="M 14.550781 53.664062 C 17.574219 51.429688 19.652344 48.121094 20.351562 44.398438 C 20.425781 44.035156 20.996094 44.164062 20.921875 44.53125 C 20.175781 48.390625 18.011719 51.832031 14.859375 54.160156 C 14.558594 54.386719 14.253906 53.890625 14.550781 53.664062 Z M 14.550781 53.664062 "/>
<path style=" stroke:none;fill-rule:nonzero;fill:rgb(100%,100%,100%);fill-opacity:1;" d="M 14.699219 21.75 C 16.089844 22.253906 17.636719 22.023438 18.824219 21.132812 C 19.121094 20.910156 19.417969 21.40625 19.128906 21.628906 C 17.816406 22.601562 16.109375 22.863281 14.578125 22.320312 C 14.421875 22.273438 14.328125 22.125 14.355469 21.964844 C 14.390625 21.816406 14.550781 21.714844 14.699219 21.75 Z M 14.699219 21.75 "/>
<path style=" stroke:none;fill-rule:nonzero;fill:rgb(94.117647%,94.117647%,94.117647%);fill-opacity:1;" d="M 60.515625 30.71875 C 60.339844 30.867188 60.152344 31.015625 59.976562 31.167969 C 57.539062 33.140625 55.265625 35.320312 53.183594 37.664062 C 53.015625 37.84375 52.847656 38.03125 52.691406 38.207031 C 47.726562 43.921875 43.859375 50.503906 41.273438 57.640625 C 40.257812 60.472656 39.445312 63.390625 38.859375 66.355469 C 38.054688 70.441406 37.496094 74.949219 35.460938 78.425781 C 35.25 78.792969 35.015625 79.148438 34.761719 79.472656 L 13.488281 81.558594 C 13.429688 81.542969 13.386719 81.523438 13.339844 81.503906 L 12.488281 81.625 C 12.507812 81.476562 12.527344 81.308594 12.554688 81.15625 C 12.5625 81.0625 12.574219 80.980469 12.59375 80.886719 C 12.59375 80.820312 12.601562 80.765625 12.609375 80.707031 C 12.609375 80.691406 12.609375 80.671875 12.621094 80.652344 C 12.628906 80.597656 12.628906 80.550781 12.636719 80.503906 C 12.769531 79.605469 12.898438 78.707031 13.039062 77.808594 C 13.039062 77.808594 13.039062 77.808594 13.050781 77.800781 C 14.148438 70.964844 15.828125 64.167969 18.476562 57.835938 C 18.5625 57.648438 18.636719 57.445312 18.730469 57.257812 C 19.941406 54.414062 21.378906 51.675781 23.03125 49.054688 C 23.945312 47.632812 24.921875 46.25 25.96875 44.933594 C 28.691406 41.507812 31.917969 38.535156 35.554688 36.125 C 42.792969 31.324219 51.488281 28.902344 59.882812 30.585938 C 60.085938 30.632812 60.300781 30.671875 60.515625 30.71875 Z M 60.515625 30.71875 "/>
<path style=" stroke:none;fill-rule:nonzero;fill:rgb(100%,100%,100%);fill-opacity:1;" d="M 60.496094 31 C 50.105469 34.148438 40.964844 40.527344 34.363281 49.207031 C 32.917969 51.058594 31.761719 53.113281 30.949219 55.320312 C 30.222656 57.5 30.089844 59.828125 30.566406 62.070312 C 30.96875 64.167969 31.609375 66.269531 31.5 68.441406 C 31.339844 70.675781 30.257812 72.742188 28.496094 74.117188 C 26.367188 75.863281 23.746094 76.742188 21.15625 77.511719 C 18.28125 78.363281 15.277344 79.203125 13.003906 81.289062 C 12.722656 81.542969 12.347656 81.09375 12.628906 80.839844 C 16.585938 77.210938 22.347656 77.332031 26.796875 74.613281 C 28.867188 73.339844 30.574219 71.433594 30.875 68.9375 C 31.136719 66.746094 30.472656 64.570312 30.054688 62.445312 C 29.550781 60.265625 29.605469 57.996094 30.183594 55.835938 C 30.882812 53.601562 31.957031 51.496094 33.355469 49.617188 C 36.441406 45.332031 40.183594 41.574219 44.425781 38.460938 C 49.257812 34.890625 54.660156 32.167969 60.394531 30.429688 C 60.757812 30.316406 60.851562 30.894531 60.496094 31 Z M 60.496094 31 "/>
<path style=" stroke:none;fill-rule:nonzero;fill:rgb(100%,100%,100%);fill-opacity:1;" d="M 36.332031 46.289062 C 33.652344 43.574219 33.316406 39.3125 35.539062 36.214844 C 35.761719 35.90625 36.238281 36.234375 36.011719 36.542969 C 33.933594 39.425781 34.257812 43.398438 36.769531 45.914062 C 37.03125 46.175781 36.589844 46.550781 36.332031 46.289062 Z M 36.332031 46.289062 "/>
<path style=" stroke:none;fill-rule:nonzero;fill:rgb(100%,100%,100%);fill-opacity:1;" d="M 30.222656 61.035156 C 33.980469 61.070312 37.617188 59.6875 40.40625 57.152344 C 40.675781 56.902344 41.050781 57.351562 40.78125 57.59375 C 37.871094 60.230469 34.082031 61.660156 30.175781 61.613281 C 29.800781 61.605469 29.847656 61.023438 30.222656 61.035156 Z M 30.222656 61.035156 "/>
<path style=" stroke:none;fill-rule:nonzero;fill:rgb(100%,100%,100%);fill-opacity:1;" d="M 49.425781 35.636719 C 50.238281 36.878906 51.609375 37.636719 53.082031 37.636719 C 53.457031 37.636719 53.410156 38.226562 53.035156 38.21875 C 51.402344 38.207031 49.890625 37.386719 48.988281 36.011719 C 48.886719 35.890625 48.902344 35.710938 49.023438 35.609375 C 49.136719 35.507812 49.324219 35.515625 49.425781 35.636719 Z M 49.425781 35.636719 "/>
<path style=" stroke:none;fill-rule:nonzero;fill:rgb(100%,100%,100%);fill-opacity:1;" d="M 211.6875 202.675781 L 150.84375 202.675781 C 143.761719 202.664062 138.027344 196.894531 138.019531 189.761719 L 138.019531 95.277344 C 138.027344 88.144531 143.761719 82.375 150.84375 82.363281 L 211.6875 82.363281 C 218.765625 82.375 224.5 88.144531 224.511719 95.277344 L 224.511719 189.761719 C 224.5 196.894531 218.765625 202.664062 211.6875 202.675781 Z M 211.6875 202.675781 "/>
<path style=" stroke:none;fill-rule:nonzero;fill:rgb(42.352941%,38.823529%,100%);fill-opacity:1;" d="M 205.089844 193.296875 L 157.445312 193.296875 C 150.460938 193.285156 144.808594 187.589844 144.800781 180.558594 L 144.800781 104.480469 C 144.808594 97.445312 150.460938 91.753906 157.445312 91.742188 L 205.089844 91.742188 C 212.066406 91.753906 217.722656 97.445312 217.730469 104.480469 L 217.730469 180.558594 C 217.722656 187.589844 212.066406 193.285156 205.089844 193.296875 Z M 205.089844 193.296875 "/>
<path style=" stroke:none;fill-rule:nonzero;fill:rgb(24.705882%,23.921569%,33.72549%);fill-opacity:1;" d="M 138.558594 165.605469 L 224.324219 165.605469 L 224.324219 185.535156 L 138.558594 185.535156 Z M 138.558594 165.605469 "/>
<path style=" stroke:none;fill-rule:nonzero;fill:rgb(100%,100%,100%);fill-opacity:1;" d="M 16.976562 117.765625 L 2.445312 98.960938 C -1.492188 93.855469 -0.578125 86.496094 4.488281 82.523438 L 63.304688 36.449219 C 66.746094 33.757812 70.90625 32.140625 75.253906 31.804688 L 80.214844 31.410156 L 122.933594 6.21875 C 122.160156 4.515625 122.777344 2.496094 124.363281 1.523438 C 125.957031 0.550781 128.007812 0.933594 129.15625 2.414062 L 141.308594 18.148438 C 142.449219 19.628906 142.308594 21.742188 140.976562 23.050781 C 139.640625 24.359375 137.542969 24.453125 136.097656 23.265625 L 101.15625 58.453125 C 100.410156 64.316406 97.386719 69.636719 92.742188 73.246094 L 33.289062 119.816406 C 28.226562 123.789062 20.910156 122.863281 16.976562 117.765625 Z M 16.976562 117.765625 "/>
<path style=" stroke:none;fill-rule:nonzero;fill:rgb(24.705882%,23.921569%,33.72549%);fill-opacity:1;" d="M 211.6875 202.675781 L 150.84375 202.675781 C 143.761719 202.664062 138.027344 196.894531 138.019531 189.761719 L 138.019531 95.277344 C 138.027344 88.144531 143.761719 82.375 150.84375 82.363281 L 211.6875 82.363281 C 218.765625 82.375 224.5 88.144531 224.511719 95.277344 L 224.511719 189.761719 C 224.5 196.894531 218.765625 202.664062 211.6875 202.675781 Z M 150.84375 83.09375 C 144.164062 83.101562 138.753906 88.554688 138.753906 95.277344 L 138.753906 189.761719 C 138.753906 196.484375 144.164062 201.9375 150.84375 201.9375 L 211.6875 201.9375 C 218.363281 201.9375 223.773438 196.484375 223.785156 189.761719 L 223.785156 95.277344 C 223.773438 88.554688 218.363281 83.101562 211.6875 83.09375 Z M 150.84375 83.09375 "/>
<path style=" stroke:none;fill-rule:nonzero;fill:rgb(42.352941%,38.823529%,100%);fill-opacity:1;" d="M 139.949219 4.496094 C 146.628906 1.75 154.230469 2.46875 160.28125 6.433594 C 166.417969 10.398438 171 17.550781 172.53125 25.566406 C 173.277344 29.492188 173.546875 34.066406 176.269531 36.507812 C 178.273438 38.300781 181 38.347656 183.40625 39.207031 C 190.511719 41.769531 194.1875 51.71875 193.152344 60.351562 C 192.117188 68.984375 187.5 76.417969 182.554688 82.933594 C 184.125 79.429688 182.082031 74.890625 179.085938 73.058594 C 176.101562 71.226562 172.539062 71.375 169.171875 71.683594 C 165.804688 71.984375 162.296875 72.367188 159.164062 70.917969 C 153.800781 68.421875 151.085938 61.222656 150.675781 54.480469 C 150.273438 47.738281 151.609375 41.023438 151.710938 34.261719 C 151.804688 27.5 150.3125 20.105469 145.675781 16.082031 C 143.550781 14.230469 140.910156 13.242188 138.933594 11.183594 C 136.945312 9.117188 135.882812 5.199219 137.738281 2.972656 "/>
<path style=" stroke:none;fill-rule:nonzero;fill:rgb(94.117647%,94.117647%,94.117647%);fill-opacity:1;" d="M 214.429688 79.242188 C 214.230469 79.242188 214.046875 79.25 213.851562 79.257812 C 215.191406 75.464844 214.128906 71.226562 211.164062 68.523438 C 208.1875 65.820312 203.898438 65.1875 200.277344 66.917969 C 198.691406 62.417969 195.289062 59.3125 191.332031 59.3125 C 187.386719 59.3125 183.972656 62.417969 182.386719 66.917969 C 179.703125 65.636719 176.585938 65.636719 173.890625 66.917969 C 172.304688 62.417969 168.902344 59.3125 164.945312 59.3125 C 160.992188 59.3125 157.585938 62.417969 156 66.917969 C 152.382812 65.1875 148.089844 65.820312 145.117188 68.523438 C 142.148438 71.226562 141.085938 75.464844 142.429688 79.257812 C 142.242188 79.25 142.046875 79.242188 141.859375 79.242188 C 136.394531 79.242188 131.964844 85.1875 131.964844 92.527344 C 131.964844 99.859375 136.394531 105.816406 141.859375 105.816406 C 146.355469 105.816406 150.152344 101.777344 151.355469 96.25 C 154.3125 99.234375 158.816406 100.007812 162.59375 98.203125 C 164.179688 102.703125 167.59375 105.816406 171.550781 105.816406 C 176.046875 105.816406 179.84375 101.777344 181.046875 96.25 C 184.003906 99.234375 188.507812 100.007812 192.285156 98.203125 C 193.871094 102.703125 197.273438 105.816406 201.230469 105.816406 C 205.183594 105.816406 208.589844 102.703125 210.175781 98.203125 C 213.851562 99.960938 218.207031 99.28125 221.179688 96.484375 C 224.148438 93.699219 225.117188 89.359375 223.632812 85.550781 C 222.140625 81.746094 218.484375 79.242188 214.429688 79.242188 Z M 214.429688 79.242188 "/>
<path style=" stroke:none;fill-rule:nonzero;fill:rgb(100%,100%,100%);fill-opacity:1;" d="M 163.480469 105.816406 C 163.480469 106.835938 162.660156 107.660156 161.644531 107.660156 C 160.636719 107.660156 159.816406 106.835938 159.816406 105.816406 C 159.816406 104.796875 160.636719 103.964844 161.644531 103.964844 C 162.660156 103.964844 163.480469 104.796875 163.480469 105.816406 Z M 163.480469 105.816406 "/>
<path style=" stroke:none;fill-rule:nonzero;fill:rgb(100%,100%,100%);fill-opacity:1;" d="M 174.84375 137.1875 C 174.84375 138.207031 174.023438 139.03125 173.003906 139.03125 C 171.996094 139.03125 171.175781 138.207031 171.175781 137.1875 C 171.175781 136.171875 171.996094 135.335938 173.003906 135.335938 C 174.023438 135.335938 174.84375 136.171875 174.84375 137.1875 Z M 174.84375 137.1875 "/>
<path style=" stroke:none;fill-rule:nonzero;fill:rgb(100%,100%,100%);fill-opacity:1;" d="M 186.566406 115.773438 C 186.566406 116.792969 185.746094 117.617188 184.738281 117.617188 C 183.722656 117.617188 182.910156 116.792969 182.910156 115.773438 C 182.910156 114.757812 183.722656 113.933594 184.738281 113.933594 C 185.746094 113.933594 186.566406 114.757812 186.566406 115.773438 Z M 186.566406 115.773438 "/>
<path style=" stroke:none;fill-rule:nonzero;fill:rgb(100%,100%,100%);fill-opacity:1;" d="M 173.378906 122.425781 C 173.378906 123.441406 172.558594 124.265625 171.550781 124.265625 C 170.535156 124.265625 169.710938 123.441406 169.710938 122.425781 C 169.710938 121.40625 170.535156 120.574219 171.550781 120.574219 C 172.558594 120.574219 173.378906 121.40625 173.378906 122.425781 Z M 173.378906 122.425781 "/>
<path style=" stroke:none;fill-rule:nonzero;fill:rgb(100%,100%,100%);fill-opacity:1;" d="M 196.464844 142.351562 C 196.464844 143.371094 195.644531 144.191406 194.636719 144.191406 C 193.617188 144.191406 192.796875 143.371094 192.796875 142.351562 C 192.796875 141.332031 193.617188 140.507812 194.636719 140.507812 C 195.644531 140.507812 196.464844 141.332031 196.464844 142.351562 Z M 196.464844 142.351562 "/>
<path style=" stroke:none;fill-rule:nonzero;fill:rgb(100%,100%,100%);fill-opacity:1;" d="M 203.066406 105.816406 C 203.066406 106.835938 202.238281 107.660156 201.230469 107.660156 C 200.222656 107.660156 199.402344 106.835938 199.402344 105.816406 C 199.402344 104.796875 200.222656 103.964844 201.230469 103.964844 C 202.238281 103.964844 203.066406 104.796875 203.066406 105.816406 Z M 203.066406 105.816406 "/>
<path style=" stroke:none;fill-rule:nonzero;fill:rgb(24.705882%,23.921569%,33.72549%);fill-opacity:1;" d="M 224.148438 172.609375 L 224.148438 171.871094 C 243.027344 171.871094 258.332031 156.460938 258.332031 137.449219 C 258.332031 118.441406 243.027344 103.03125 224.148438 103.03125 L 224.148438 102.292969 C 243.425781 102.292969 259.058594 118.027344 259.058594 137.449219 C 259.058594 156.875 243.425781 172.609375 224.148438 172.609375 Z M 224.148438 172.609375 "/>
<path style=" stroke:none;fill-rule:nonzero;fill:rgb(24.705882%,23.921569%,33.72549%);fill-opacity:1;" d="M 224.324219 165.972656 L 223.953125 165.972656 L 223.953125 165.046875 L 224.6875 165.046875 L 224.6875 165.234375 C 239.082031 165.027344 250.609375 153.171875 250.515625 138.667969 C 250.414062 124.171875 238.714844 112.472656 224.324219 112.472656 L 224.324219 111.734375 C 239.191406 111.734375 251.242188 123.882812 251.242188 138.855469 C 251.242188 153.835938 239.191406 165.972656 224.324219 165.972656 Z M 224.324219 165.972656 "/>
<path style=" stroke:none;fill-rule:nonzero;fill:rgb(42.352941%,38.823529%,100%);fill-opacity:1;" d="M 20.035156 113.242188 L 7.554688 97.074219 C 4.207031 92.742188 4.980469 86.507812 9.28125 83.128906 L 59.855469 43.527344 C 62.792969 41.21875 66.335938 39.835938 70.058594 39.546875 L 74.359375 39.21875 L 113.945312 15.859375 L 124.597656 29.644531 L 92.183594 62.277344 C 91.558594 67.289062 88.972656 71.851562 85 74.949219 L 33.886719 114.980469 C 29.585938 118.355469 23.382812 117.578125 20.035156 113.242188 Z M 20.035156 113.242188 "/>
<path style=" stroke:none;fill-rule:nonzero;fill:rgb(94.117647%,94.117647%,94.117647%);fill-opacity:1;" d="M 137.765625 18.589844 C 138.980469 18.9375 140.535156 18.589844 141.851562 17.570312 C 143.761719 16.066406 144.40625 13.671875 143.289062 12.230469 C 143.09375 11.96875 142.839844 11.746094 142.550781 11.578125 C 142.839844 10.679688 142.691406 9.6875 142.132812 8.921875 C 141.992188 8.734375 141.824219 8.574219 141.628906 8.433594 C 142.894531 6.675781 143.363281 5.105469 142.710938 4.265625 C 142.335938 3.84375 141.777344 3.617188 141.21875 3.664062 C 141.308594 2.945312 141.125 2.226562 140.695312 1.636719 C 139.742188 0.421875 137.839844 0.261719 136.125 1.148438 C 136.105469 1.121094 136.085938 1.085938 136.058594 1.058594 C 134.941406 -0.394531 132.488281 -0.347656 130.566406 1.160156 C 129.605469 1.878906 128.921875 2.90625 128.652344 4.085938 C 127.449219 4.066406 126.292969 4.480469 125.359375 5.238281 C 123.4375 6.734375 122.785156 9.125 123.914062 10.574219 C 123.960938 10.640625 124.015625 10.699219 124.074219 10.753906 L 124.046875 10.78125 C 124 10.707031 123.960938 10.640625 123.914062 10.574219 C 122.785156 9.125 120.324219 9.171875 118.410156 10.667969 C 117.449219 11.390625 116.78125 12.425781 116.5 13.605469 C 115.304688 13.585938 114.128906 13.988281 113.207031 14.746094 C 111.292969 16.253906 110.640625 18.644531 111.761719 20.09375 C 112.878906 21.535156 115.34375 21.5 117.253906 19.992188 C 116.351562 20.703125 115.875 21.824219 115.996094 22.976562 C 116.125 24.125 116.835938 25.125 117.859375 25.613281 C 117.460938 26.59375 117.421875 27.425781 117.832031 27.960938 C 118.484375 28.800781 120.117188 28.726562 122.113281 27.929688 C 122.199219 28.148438 122.320312 28.351562 122.460938 28.539062 C 123.578125 29.988281 126.042969 29.941406 127.964844 28.445312 C 128.921875 27.726562 129.59375 26.6875 129.875 25.507812 C 131.070312 25.527344 132.234375 25.125 133.167969 24.359375 C 133.605469 24.023438 133.996094 23.613281 134.324219 23.152344 C 134.847656 22.949219 135.332031 22.667969 135.769531 22.332031 C 137.074219 21.300781 137.792969 19.863281 137.765625 18.589844 Z M 137.765625 18.589844 "/>
<path style=" stroke:none;fill-rule:nonzero;fill:rgb(24.705882%,23.921569%,33.72549%);fill-opacity:1;" d="M 16.976562 117.765625 L 2.445312 98.960938 C -1.492188 93.855469 -0.578125 86.496094 4.488281 82.523438 L 63.304688 36.449219 C 66.746094 33.757812 70.90625 32.140625 75.253906 31.804688 L 80.214844 31.410156 L 122.933594 6.21875 C 122.160156 4.515625 122.777344 2.496094 124.363281 1.523438 C 125.957031 0.550781 128.007812 0.933594 129.15625 2.414062 L 141.308594 18.148438 C 142.449219 19.628906 142.308594 21.742188 140.976562 23.050781 C 139.640625 24.359375 137.542969 24.453125 136.097656 23.265625 L 101.15625 58.453125 C 100.410156 64.316406 97.386719 69.636719 92.742188 73.246094 L 33.289062 119.816406 C 28.226562 123.789062 20.910156 122.863281 16.976562 117.765625 Z M 128.578125 2.863281 C 127.636719 1.636719 125.902344 1.367188 124.625 2.234375 C 123.347656 3.105469 122.953125 4.824219 123.738281 6.171875 L 123.925781 6.488281 L 80.441406 32.140625 L 75.308594 32.53125 C 71.113281 32.859375 67.082031 34.421875 63.761719 37.039062 L 4.945312 83.113281 C 0.1875 86.824219 -0.671875 93.726562 3.023438 98.503906 L 17.554688 117.308594 C 21.246094 122.085938 28.09375 122.957031 32.84375 119.234375 L 92.292969 72.667969 C 96.820312 69.140625 99.746094 63.953125 100.4375 58.238281 L 100.457031 58.117188 L 136.085938 22.238281 L 136.347656 22.5 C 137.441406 23.601562 139.191406 23.65625 140.359375 22.621094 C 141.515625 21.589844 141.683594 19.832031 140.730469 18.597656 Z M 128.578125 2.863281 "/>
<path style=" stroke:none;fill-rule:nonzero;fill:rgb(24.705882%,23.921569%,33.72549%);fill-opacity:1;" d="M 29.53125 63.382812 L 50.359375 47.074219 L 78.703125 83.777344 L 57.875 100.09375 Z M 29.53125 63.382812 "/>
<path style=" stroke:none;fill-rule:nonzero;fill:rgb(24.705882%,23.921569%,33.72549%);fill-opacity:1;" d="M 30.042969 63.445312 L 57.941406 99.570312 L 78.191406 83.710938 L 50.292969 47.585938 Z M 30.042969 63.445312 "/>
<path style=" stroke:none;fill-rule:nonzero;fill:rgb(100%,100%,100%);fill-opacity:1;" d="M 113.300781 28.734375 C 113.300781 29.753906 112.480469 30.578125 111.472656 30.578125 C 110.457031 30.578125 109.632812 29.753906 109.632812 28.734375 C 109.632812 27.714844 110.457031 26.882812 111.472656 26.882812 C 112.480469 26.882812 113.300781 27.714844 113.300781 28.734375 Z M 113.300781 28.734375 "/>
<path style=" stroke:none;fill-rule:nonzero;fill:rgb(100%,100%,100%);fill-opacity:1;" d="M 98.832031 31.644531 C 98.832031 32.664062 98.023438 33.496094 97.003906 33.496094 C 95.996094 33.496094 95.175781 32.664062 95.175781 31.644531 C 95.175781 30.625 95.996094 29.800781 97.003906 29.800781 C 98.023438 29.800781 98.832031 30.625 98.832031 31.644531 Z M 98.832031 31.644531 "/>
<path style=" stroke:none;fill-rule:nonzero;fill:rgb(100%,100%,100%);fill-opacity:1;" d="M 99.710938 43.59375 C 99.710938 44.613281 98.890625 45.4375 97.871094 45.4375 C 96.867188 45.4375 96.035156 44.613281 96.035156 43.59375 C 96.035156 42.574219 96.867188 41.753906 97.871094 41.753906 C 98.890625 41.753906 99.710938 42.574219 99.710938 43.59375 Z M 99.710938 43.59375 "/>
<path style=" stroke:none;fill-rule:nonzero;fill:rgb(100%,100%,100%);fill-opacity:1;" d="M 85.242188 46.503906 C 85.242188 47.523438 84.421875 48.355469 83.40625 48.355469 C 82.398438 48.355469 81.578125 47.523438 81.578125 46.503906 C 81.578125 45.484375 82.398438 44.660156 83.40625 44.660156 C 84.421875 44.660156 85.242188 45.484375 85.242188 46.503906 Z M 85.242188 46.503906 "/>
<path style=" stroke:none;fill-rule:nonzero;fill:rgb(100%,100%,100%);fill-opacity:1;" d="M 160.554688 24.613281 C 160.554688 25.632812 159.722656 26.464844 158.714844 26.464844 C 157.707031 26.464844 156.886719 25.632812 156.886719 24.613281 C 156.886719 23.601562 157.707031 22.769531 158.714844 22.769531 C 159.722656 22.769531 160.554688 23.601562 160.554688 24.613281 Z M 160.554688 24.613281 "/>
<path style=" stroke:none;fill-rule:nonzero;fill:rgb(100%,100%,100%);fill-opacity:1;" d="M 167.148438 34.582031 C 167.148438 35.597656 166.328125 36.421875 165.320312 36.421875 C 164.300781 36.421875 163.480469 35.597656 163.480469 34.582031 C 163.480469 33.5625 164.300781 32.738281 165.320312 32.738281 C 166.328125 32.738281 167.148438 33.5625 167.148438 34.582031 Z M 167.148438 34.582031 "/>
<path style=" stroke:none;fill-rule:nonzero;fill:rgb(100%,100%,100%);fill-opacity:1;" d="M 167.148438 51.1875 C 167.148438 52.207031 166.328125 53.039062 165.320312 53.039062 C 164.300781 53.039062 163.480469 52.207031 163.480469 51.1875 C 163.480469 50.167969 164.300781 49.34375 165.320312 49.34375 C 166.328125 49.34375 167.148438 50.167969 167.148438 51.1875 Z M 167.148438 51.1875 "/>
<path style=" stroke:none;fill-rule:nonzero;fill:rgb(94.901961%,94.901961%,94.901961%);fill-opacity:1;" d="M 138.597656 64.035156 C 136.570312 64.101562 130.070312 64.53125 126.703125 67.382812 C 122.675781 70.789062 122.675781 74.03125 124.625 76.371094 C 126.574219 78.707031 129.746094 79.269531 133.773438 75.855469 C 137.1875 72.976562 138.71875 66.476562 139.109375 64.570312 Z M 138.597656 64.035156 "/>
<path style=" stroke:none;fill-rule:nonzero;fill:rgb(94.901961%,94.901961%,94.901961%);fill-opacity:1;" d="M 190.699219 22.996094 C 191.988281 24.574219 196.296875 29.484375 200.605469 30.429688 C 205.746094 31.550781 208.28125 29.578125 208.933594 26.585938 C 209.578125 23.601562 208.078125 20.730469 202.9375 19.609375 C 198.582031 18.65625 192.535156 21.394531 190.800781 22.253906 Z M 190.699219 22.996094 "/>
<path style=" stroke:none;fill-rule:nonzero;fill:rgb(94.901961%,94.901961%,94.901961%);fill-opacity:1;" d="M 223.671875 71.347656 C 223.914062 73.367188 224.894531 79.847656 228.007812 82.992188 C 231.730469 86.742188 234.929688 86.460938 237.074219 84.289062 C 239.230469 82.140625 239.5 78.914062 235.777344 75.164062 C 232.625 71.984375 226.078125 71.003906 224.148438 70.777344 Z M 223.671875 71.347656 "/>
<path style=" stroke:none;fill-rule:nonzero;fill:rgb(24.705882%,23.921569%,33.72549%);fill-opacity:1;" d="M 298.214844 202.964844 C 298.214844 203.207031 298.019531 203.402344 297.777344 203.402344 L 60.542969 203.402344 C 60.300781 203.402344 60.105469 203.207031 60.105469 202.964844 C 60.105469 202.730469 60.300781 202.523438 60.542969 202.523438 L 297.777344 202.523438 C 298.019531 202.523438 298.214844 202.722656 298.214844 202.964844 Z M 298.214844 202.964844 "/>
</g>
</svg>
